<svg width="922" height="768" viewBox="0 0 922 768" fill="none" xmlns="http://www.w3.org/2000/svg">
<path d="M35.6734 -136.876C35.6734 -136.876 126.59 48.1115 221.728 134.463C316.866 220.814 471.474 180.406 544.701 302.218C617.928 424.03 427.762 617.718 489.272 730.652C550.783 843.585 759.533 918.788 759.533 918.788" stroke="url(#paint0_linear_708_136)"/>
<path d="M714.712 949.522C714.712 949.522 574.92 798.048 528.658 678.183C482.395 558.319 575.807 428.662 488.57 316.457C401.333 204.251 152.127 311.836 68.9496 213.759C-14.2277 115.683 -9.1472 -106.142 -9.1472 -106.142" stroke="white"/>
<path d="M824.742 874.076C824.742 874.076 733.825 689.088 638.687 602.737C543.549 516.386 388.941 556.794 315.714 434.982C242.487 313.17 432.653 119.482 371.143 6.54804C309.632 -106.385 100.882 -181.589 100.882 -181.589" stroke="#812DE2"/>
<defs>
<linearGradient id="paint0_linear_708_136" x1="58.1109" y1="-152.261" x2="781.971" y2="903.403" gradientUnits="userSpaceOnUse">
<stop stop-color="white"/>
<stop offset="1" stop-color="#727272"/>
</linearGradient>
</defs>
</svg>
